<svg width="1024" height="256" viewBox="0 0 1024 256" fill="none" xmlns="http://www.w3.org/2000/svg">
<path d="M131.072 0C161.792 0.000197918 186.368 24.576 186.368 55.296V131.072C186.368 161.792 161.792 186.368 131.072 186.368H55.296C24.576 186.368 0.000197969 161.792 0 131.072V55.296C0.000214411 24.576 24.576 0.000214467 55.296 0H131.072ZM95.3856 18.6368C95.1552 58.8288 63.2832 91.2896 23.7824 91.2896C22.0416 91.2896 20.3264 91.2256 18.6368 91.0976V91.4432C20.3264 91.3152 22.0416 91.2512 23.7824 91.2512C63.4368 91.2512 95.3856 124.068 95.3856 164.435C95.3856 165.424 95.3728 166.406 95.3344 167.68H95.4624C95.424 166.406 95.4112 165.424 95.4112 164.435C95.4112 124.068 127.36 91.2512 167.014 91.2512C167.245 91.2512 167.475 91.2528 167.68 91.2544V91.2448C167.475 91.2464 167.245 91.2512 167.014 91.2512C127.514 91.2512 95.6416 58.8288 95.3856 18.6368Z" fill="#027659"/>
<path d="M242.688 186.368V18.6368H258.048V186.368H242.688Z" fill="#027659"/>
<path d="M290.816 186.368V18.6368H306.176V172.032H378.88V186.368H290.816Z" fill="#027659"/>
<path d="M398.336 186.368V18.6368H483.328V32.9728H413.696V93.184H476.16V107.52H413.696V172.032H483.328V186.368H398.336Z" fill="#027659"/>
<path d="M505.856 186.368V18.6368C520.192 18.6368 534.528 18.6368 548.864 18.6368C563.2 18.6368 577.536 18.6368 591.872 18.6368C606.208 18.6368 620.544 18.6368 634.88 18.6368V32.9728H521.216V93.184H627.712V107.52H521.216V172.032H634.88V186.368H505.856Z" fill="#027659"/>
<path d="M657.408 186.368V18.6368H672.768V93.184H743.424V18.6368H758.784V186.368H743.424V107.52H672.768V186.368H657.408Z" fill="#027659"/>
<path d="M781.312 186.368V18.6368H796.672V172.032H869.376V186.368H781.312Z" fill="#027659"/>
<path d="M888.832 186.368V18.6368H904.192V186.368H888.832Z" fill="#027659"/>
<path d="M927.744 186.368V18.6368H943.104V172.032H1024V186.368H927.744Z" fill="#027659"/>
<path d="M242.688 256V237.568H258.048V256H242.688Z" fill="#027659"/>
<path d="M290.816 256V237.568H306.176V256H290.816Z" fill="#027659"/>
<path d="M338.944 256V237.568H354.304V256H338.944Z" fill="#027659"/>
</svg>
