<svg width="3000" height="449" viewBox="0 0 3000 449" fill="none" xmlns="http://www.w3.org/2000/svg">
<mask id="mask0_4_48" style="mask-type:luminance" maskUnits="userSpaceOnUse" x="0" y="0" width="449" height="449">
<path d="M448.718 0H0V449H448.718V0Z" fill="white"/>
</mask>
<g mask="url(#mask0_4_48)">
<path d="M314.103 0C388.449 0 448.718 60.3071 448.718 134.7V314.3C448.718 388.693 388.449 449 314.103 449H134.615C60.2692 449 0 388.693 0 314.3V134.7C0 60.3071 60.2692 0 134.615 0H314.103ZM229.686 44.9C229.103 141.743 152.153 220.064 57.3135 220.065C53.1301 220.065 48.9801 219.914 44.8718 219.614V220.519C48.9801 220.22 53.1301 220.065 57.3135 220.065C152.514 220.066 229.689 298.987 229.689 396.339C229.689 398.94 229.636 401.528 229.527 404.1H229.855C229.746 401.528 229.689 398.94 229.689 396.339C229.69 298.986 306.867 220.065 402.067 220.065C402.66 220.065 403.253 220.068 403.846 220.074V220.056C403.253 220.062 402.66 220.065 402.067 220.065C307.228 220.065 230.279 141.743 229.696 44.9H229.686Z" fill="#027659"/>
</g>
<path d="M764.42 197.079V249.516H572.622V197.079H764.42ZM621.881 223.297L604.763 328.52L575.417 295.66H775.949V354.389H532.446L552.359 223.297L532.446 92.2053H774.202V150.935H575.417L604.763 118.074L621.881 223.297ZM795.494 85.2138H867.112V354.389H795.494V85.2138ZM1005.94 359.983C981.718 359.983 960.058 355.553 940.962 346.699C922.096 337.844 907.189 325.49 896.244 309.643C885.295 293.563 879.824 274.919 879.824 253.711C879.824 232.969 885.064 214.791 895.545 199.176C906.026 183.329 920.349 170.977 938.516 162.121C956.913 153.265 977.644 148.837 1000.7 148.837C1024.69 148.837 1045.07 154.081 1061.84 164.568C1078.84 174.822 1091.88 189.388 1100.97 208.265C1110.28 227.143 1114.94 249.399 1114.94 275.035H937.468V232.037H1074.77L1051.36 247.069C1050.43 236.814 1047.87 228.191 1043.67 221.2C1039.48 213.975 1033.89 208.499 1026.9 204.77C1020.15 201.041 1012 199.176 1002.45 199.176C991.968 199.176 983 201.274 975.548 205.469C968.093 209.664 962.272 215.49 958.08 222.948C953.888 230.172 951.792 238.679 951.792 248.467C951.792 261.052 954.587 271.772 960.176 280.628C965.997 289.251 974.381 295.893 985.33 300.554C996.51 305.215 1010.13 307.546 1026.21 307.546C1040.88 307.546 1055.43 305.681 1069.87 301.952C1084.55 297.991 1097.82 292.514 1109.7 285.522V330.967C1095.96 340.291 1080.24 347.513 1062.54 352.641C1045.07 357.535 1026.21 359.983 1005.94 359.983ZM1365.91 270.141C1364.05 288.086 1357.53 303.817 1346.35 317.334C1335.17 330.852 1320.61 341.339 1302.68 348.796C1284.98 356.253 1265.06 359.983 1242.94 359.983C1218.48 359.983 1196.94 355.553 1178.31 346.699C1159.67 337.844 1145.12 325.49 1134.64 309.643C1124.16 293.796 1118.92 275.501 1118.92 254.759C1118.92 233.785 1124.16 215.373 1134.64 199.526C1145.12 183.678 1159.67 171.327 1178.31 162.471C1196.94 153.382 1218.48 148.837 1242.94 148.837C1265.06 148.837 1284.98 152.682 1302.68 160.373C1320.61 167.831 1335.17 178.318 1346.35 191.835C1357.53 205.119 1364.05 220.85 1365.91 239.028H1294.99C1292.43 227.143 1286.49 218.054 1277.18 211.761C1267.86 205.236 1256.45 201.973 1242.94 201.973C1232.46 201.973 1223.26 204.07 1215.34 208.265C1207.65 212.227 1201.6 218.17 1197.17 226.094C1192.98 233.785 1190.88 243.34 1190.88 254.759C1190.88 265.946 1192.98 275.501 1197.17 283.425C1201.6 291.116 1207.65 297.058 1215.34 301.253C1223.26 305.215 1232.46 307.196 1242.94 307.196C1256.45 307.196 1267.86 303.817 1277.18 297.058C1286.72 290.3 1292.66 281.327 1294.99 270.141H1365.91ZM1356.45 207.566V176.454L1396.97 160.024L1427.71 100.945H1468.24V154.78H1552.09V207.566H1468.24V266.295C1468.24 280.745 1471.15 290.882 1476.97 296.709C1482.8 302.535 1493.39 305.448 1508.77 305.448C1518.55 305.448 1527.17 304.633 1534.62 303.001C1542.3 301.137 1549.29 298.806 1555.58 296.01V349.845C1548.59 352.407 1539.39 354.739 1527.98 356.836C1516.57 358.934 1504.81 359.983 1492.7 359.983C1470.57 359.983 1452.4 356.602 1438.2 349.845C1424.22 343.087 1413.86 333.415 1407.1 320.83C1400.35 308.012 1396.97 293.097 1396.97 276.084V207.566H1356.45ZM1566.95 151.634L1602.93 158.625L1638.57 151.634V354.389H1566.95V151.634ZM1602.58 135.203C1590.24 135.203 1580.22 132.174 1572.54 126.114C1564.85 119.822 1561.01 111.316 1561.01 100.595C1561.01 90.1079 1564.85 81.718 1572.54 75.4256C1580.22 69.1331 1590.24 65.9869 1602.58 65.9869C1615.39 65.9869 1625.53 69.1331 1632.98 75.4256C1640.66 81.718 1644.51 90.1079 1644.51 100.595C1644.51 111.316 1640.66 119.822 1632.98 126.114C1625.53 132.174 1615.39 135.203 1602.58 135.203ZM1788.23 320.48L1763.77 320.131L1832.95 154.78H1909.11L1815.83 354.389H1734.43L1641.15 154.78H1720.1L1788.23 320.48ZM2016.49 359.983C1992.27 359.983 1970.61 355.553 1951.51 346.699C1932.64 337.844 1917.74 325.49 1906.79 309.643C1895.84 293.563 1890.37 274.919 1890.37 253.711C1890.37 232.969 1895.61 214.791 1906.09 199.176C1916.57 183.329 1930.9 170.977 1949.06 162.121C1967.46 153.265 1988.19 148.837 2011.25 148.837C2035.24 148.837 2055.62 154.081 2072.39 164.568C2089.39 174.822 2102.43 189.388 2111.52 208.265C2120.83 227.143 2125.49 249.399 2125.49 275.035H1948.02V232.037H2085.31L2061.91 247.069C2060.97 236.814 2058.41 228.191 2054.22 221.2C2050.03 213.975 2044.44 208.499 2037.45 204.77C2030.7 201.041 2022.54 199.176 2013 199.176C2002.52 199.176 1993.55 201.274 1986.1 205.469C1978.64 209.664 1972.82 215.49 1968.63 222.948C1964.44 230.172 1962.34 238.679 1962.34 248.467C1962.34 261.052 1965.13 271.772 1970.72 280.628C1976.54 289.251 1984.93 295.893 1995.88 300.554C2007.06 305.215 2020.68 307.546 2036.75 307.546C2051.43 307.546 2065.98 305.681 2080.42 301.952C2095.1 297.991 2108.37 292.514 2120.25 285.522V330.967C2106.51 340.291 2090.79 347.513 2073.09 352.641C2055.62 357.535 2036.75 359.983 2016.49 359.983ZM2287.79 92.2053C2309.68 92.2053 2328.55 95.9343 2344.38 103.392C2360.46 110.849 2372.68 121.454 2381.07 135.203C2389.45 148.721 2393.64 164.568 2393.64 182.746C2393.64 200.691 2389.45 216.539 2381.07 230.289C2372.68 243.806 2360.46 254.293 2344.38 261.751C2328.55 269.208 2309.68 272.937 2287.79 272.937H2174.25V214.907H2283.25C2294.89 214.907 2303.97 212.111 2310.5 206.518C2317.02 200.691 2320.28 192.768 2320.28 182.746C2320.28 172.492 2317.02 164.568 2310.5 158.975C2303.97 153.148 2294.89 150.235 2283.25 150.235H2180.54L2213.03 116.676V354.389H2140.71V92.2053H2287.79ZM2457.73 206.867H2553.11C2564.76 206.867 2573.84 204.187 2580.36 198.827C2586.88 193.467 2590.14 186.009 2590.14 176.454C2590.14 166.666 2586.88 159.208 2580.36 154.081C2573.84 148.721 2564.76 146.04 2553.11 146.04H2447.6L2480.09 111.432V354.389H2407.78V92.2053H2563.24C2583.27 92.2053 2600.74 95.8175 2615.64 103.042C2630.55 110.034 2642.2 119.822 2650.58 132.407C2658.97 144.759 2663.16 159.441 2663.16 176.454C2663.16 193 2658.97 207.566 2650.58 220.151C2642.2 232.736 2630.55 242.524 2615.64 249.516C2600.74 256.507 2583.27 260.003 2563.24 260.003H2457.73V206.867ZM2496.86 231.687H2578.26L2672.24 354.389H2588.39L2496.86 231.687ZM2828.33 359.983C2797.36 359.983 2770.11 354.274 2746.58 342.853C2723.29 331.433 2705.13 315.47 2692.08 294.961C2679.28 274.452 2672.87 250.564 2672.87 223.297C2672.87 196.03 2679.28 172.142 2692.08 151.634C2705.13 131.125 2723.29 115.161 2746.58 103.741C2770.11 92.3217 2797.36 86.6121 2828.33 86.6121C2859.54 86.6121 2886.79 92.3217 2910.08 103.741C2933.37 115.161 2951.54 131.125 2964.58 151.634C2977.63 172.142 2984.15 196.03 2984.15 223.297C2984.15 250.564 2977.63 274.452 2964.58 294.961C2951.54 315.47 2933.37 331.433 2910.08 342.853C2886.79 354.274 2859.54 359.983 2828.33 359.983ZM2828.33 295.31C2845.34 295.31 2860.01 292.397 2872.35 286.571C2884.7 280.745 2894.13 272.471 2900.65 261.751C2907.41 251.03 2910.78 238.213 2910.78 223.297C2910.78 208.382 2907.41 195.564 2900.65 184.844C2894.13 174.123 2884.7 165.85 2872.35 160.024C2860.01 154.197 2845.34 151.284 2828.33 151.284C2811.56 151.284 2797.01 154.197 2784.66 160.024C2772.32 165.85 2762.77 174.123 2756.02 184.844C2749.26 195.564 2745.88 208.382 2745.88 223.297C2745.88 238.213 2749.26 251.03 2756.02 261.751C2762.77 272.471 2772.32 280.745 2784.66 286.571C2797.01 292.397 2811.56 295.31 2828.33 295.31Z" fill="#027659"/>
</svg>
