<svg width="512" height="512" viewBox="0 0 512 512" fill="none" xmlns="http://www.w3.org/2000/svg">
<path d="M256.033 14C148.329 14 61 116.871 61 255.846C61 317.674 78.3267 372.343 107.017 414.015C111.191 419.419 122.422 435.564 133.786 445.907C167.246 478.629 209.718 497.691 256 497.691C302.183 497.691 344.588 481.049 377.983 450.118L379.242 448.891L387.524 440.736L392.063 435.631C428.406 394.057 451 332.891 451 255.879C451.034 104.373 363.738 14 256.033 14Z" fill="white"/>
<path d="M222.375 320.255L214.158 329.57C215.318 329.238 216.61 328.907 218.068 328.576C221.347 327.78 225.224 326.818 228.106 325.459C230.756 324.199 232.545 322.608 232.048 320.453C231.684 318.862 230.491 318.232 229.531 317.967C229.067 317.868 228.603 317.801 228.106 317.801C227.277 317.801 226.449 318 225.621 318.298C224.396 318.663 223.269 319.326 222.375 320.255Z" fill="#C31632"/>
<path d="M235.096 80.2983C236.488 80.0994 239.437 79.37 241.06 77.182C241.888 76.0879 242.252 74.7619 242.418 73.5353C242.55 72.5075 242.484 71.5792 242.418 70.883C242.418 70.7504 242.385 70.651 242.385 70.5515C242.318 70.0542 242.252 69.7559 242.252 69.7559C242.252 69.7559 237.714 70.0211 235.527 72.9717C233.341 75.9222 234.335 80.3977 234.335 80.3977C234.335 80.3977 234.633 80.3646 235.096 80.2983Z" fill="#C31632"/>
<path d="M217.857 306.303C217.228 305.044 216.301 304.249 215.373 304.182H215.207C215.009 304.182 214.843 304.249 214.677 304.282C214.048 304.381 213.452 304.613 212.888 305.143C209.642 308.16 208.814 317.311 208.714 323.212L209.608 322.25L216.698 314.459C218.918 311.774 218.885 308.425 217.857 306.303Z" fill="#C31632"/>
<path d="M380.096 170.643C380.063 173.031 379.4 174.821 378.241 176.213C377.876 182.612 377.048 194.911 370.654 199.221C355.083 211.123 326.724 240.86 316.554 240.529C316.223 240.529 315.825 240.429 315.461 240.363L315.428 240.529C304.561 238.109 293.429 221.234 285.545 206.713C301.711 189.242 279.979 173.793 292.336 166.434C301.612 185.496 312.942 203.497 319.966 215.797C330.567 209.962 340.772 205.387 352.069 197.962C354.719 196.204 352.831 184.037 358.761 178.932C360.218 177.639 362.14 176.014 363.995 174.556L364.492 137.723V136.961C360.616 131.425 358.662 127.645 358.662 127.645C361.311 107.953 366.844 85.774 366.844 85.774C366.844 85.774 373.238 108.848 375.458 127.645C375.458 127.645 372.542 132.717 369.66 136.961L370.191 168.589C370.191 168.589 380.096 166.036 380.096 170.445C380.096 170.478 380.096 170.544 380.096 170.643ZM362.504 412.987L364.194 214.04L370.953 207.907V208.205L372.94 418.324V419.153C369.229 419.153 364.658 417.462 362.504 412.987ZM271.995 207.94C271.199 241.358 272.326 255.845 272.326 255.845C267.887 255.115 265.169 254.751 265.169 254.751L264.507 237.578C246.319 238.043 223.162 238.738 219.816 218.847C220.147 218.947 220.478 219.046 220.776 219.113C222.631 219.643 224.421 219.974 226.11 220.107C233.73 220.671 239.229 217.455 241.018 212.913C241.051 212.813 241.118 212.714 241.151 212.648C237.838 213.41 234.889 213.642 232.272 213.41C206.431 211.057 212.229 157.118 185.659 156.62C198.182 140.807 217.861 145.978 221.339 147.934C236.016 156.123 241.681 173.727 252.746 177.307C253.044 177.407 253.376 177.506 253.707 177.572C258.411 170.644 264.043 152.973 264.143 140.11C277.726 138.85 286.837 146.907 288.692 155.56C283.49 158.742 280.376 163.748 279.383 169.815C277.726 180.025 294.555 193.983 271.995 207.94ZM231.742 270.067C231.411 273.615 229.39 282.897 227.236 288.533C226.971 289.163 226.508 289.462 225.911 289.561C224.719 289.76 223.129 289.03 222.101 288.003C220.842 286.743 221.472 286.71 221.604 284.588C221.538 284.521 221.472 284.488 221.406 284.422C221.339 284.389 221.306 284.356 221.273 284.323C220.147 284.455 219.385 284.588 218.126 284.588C217.53 284.588 216.867 284.588 215.972 284.521C212.428 284.256 211.666 282.997 210.539 280.212C208.419 274.908 205.835 268.543 205.106 257.535C194.902 254.95 175.853 249.281 166.112 244.672C162.436 242.949 159.189 240.661 156.771 237.811C156.505 237.512 156.273 237.213 156.008 236.915C155.909 236.75 155.743 236.617 155.644 236.484H155.677C153.093 232.87 151.967 227.997 153.258 221.533C157.267 201.641 173.368 175.518 182.015 163.715C192.948 161.395 205.04 181.02 198.082 191.563C193.379 198.657 181.353 219.941 176.681 227.831L176.449 227.964L215.078 248.883C220.412 251.568 232.073 266.553 231.742 270.067ZM239.329 314.69C241.416 317.11 242.178 319.862 241.549 322.647C240.587 326.824 236.513 330.869 229.987 334.118L232.272 342.206L232.537 343.135L211.832 332.758L211.467 332.592L191.191 355.501L217.994 384.874C218.954 384.542 219.915 384.343 220.942 384.343C223.526 384.343 225.978 385.404 227.799 387.36C231.444 391.239 231.477 397.571 227.899 401.516C227.866 401.549 227.833 401.616 227.799 401.649C225.978 403.605 223.56 404.666 220.942 404.666C218.358 404.666 215.906 403.605 214.084 401.649C211.467 398.864 210.738 394.819 211.865 391.305L184.566 362.629L184.301 362.33L159.884 390.476C160.381 393.593 159.52 396.908 157.267 399.295C156.87 399.692 156.472 400.058 156.008 400.389C154.385 401.649 152.43 402.312 150.41 402.312C147.825 402.312 145.374 401.251 143.551 399.295C139.874 395.35 139.874 388.951 143.551 385.007C144.513 383.979 145.639 383.216 146.864 382.719C147.991 382.254 149.183 381.989 150.41 381.989C151.138 381.989 151.867 382.089 152.53 382.288L153.192 381.559L177.741 355.667L145.606 320.26C144.678 319.199 143.585 318.868 142.624 318.934C141.928 318.967 141.299 319.232 140.769 319.63C139.51 320.591 138.88 322.382 140.338 324.139C144.314 328.979 148.09 333.355 152.596 338.361L153.855 339.753L154.451 340.45L129.306 336.737L135.402 331.266C130.134 325.266 132.52 317.409 133.447 314.392L133.547 314.06C133.845 313 134.242 311.972 134.64 310.911C135.302 309.087 136.031 307.231 136.396 305.275L136.528 304.645L137.191 304.479C138.748 304.082 140.537 303.385 142.226 302.723C143.319 302.291 144.38 301.86 145.407 301.529C146.368 301.197 147.328 300.998 148.322 300.832C150.244 300.501 152.198 300.435 154.086 300.7C157.83 301.164 161.308 303.054 164.39 306.303L165.185 305.739L169.956 302.258L170.022 302.756L172.043 323.774L172.175 325.233L170.088 323.243C169.989 323.144 160.116 313.861 156.307 310.082C155.61 309.419 154.881 309.187 154.186 309.187C153.391 309.22 152.662 309.552 152.099 310.049C150.873 311.077 150.144 312.833 151.238 314.093L185.394 348.97L186.09 348.207L206.2 326.062L195.035 306.005L196.062 305.938L203.118 305.507C203.151 305.441 203.184 305.375 203.217 305.308C206.266 299.341 209.479 295.926 213.024 294.865C213.223 294.799 213.455 294.799 213.654 294.733C215.84 294.269 218.126 294.666 220.478 295.959C224.52 298.181 226.806 304.844 226.441 309.95C230.285 309.651 235.32 310.049 239.329 314.69ZM190.661 412.721C190.529 412.821 190.43 412.921 190.297 413.02C188.939 414.313 187.183 415.042 185.327 415.042C183.307 415.042 181.419 414.214 179.994 412.721C177.145 409.705 177.145 404.799 179.994 401.781C180.391 401.351 180.856 401.018 181.319 400.687C180.624 399.56 180.159 397.969 180.159 395.549C180.159 390.277 181.518 378.508 181.949 374.663L182.081 373.502C182.214 372.408 182.909 371.579 183.936 371.248C184.234 371.149 184.532 371.049 184.864 371.049C186.388 371.016 187.68 371.945 187.945 373.37C188.276 375.093 190.496 389.615 190.496 395.416C190.496 397.77 189.933 399.427 189.171 400.621C189.701 400.952 190.231 401.351 190.661 401.814C193.511 404.799 193.511 409.705 190.661 412.721ZM169.558 280.974L169.923 279.35L170.817 280.013L171.347 280.411C173.434 281.936 175.29 283.527 177.079 285.052C177.079 284.754 177.079 284.422 177.112 284.091C177.211 283.129 177.476 282.068 178.205 281.306C178.801 280.676 179.629 280.345 180.59 280.345C180.657 280.345 180.756 280.345 180.822 280.378C181.253 280.411 181.684 280.477 182.048 280.643C182.015 280.544 182.015 280.411 181.982 280.312C181.916 280.08 181.816 279.847 181.816 279.582C181.816 277.792 183.34 276.333 185.228 276.333C185.327 276.333 185.394 276.366 185.46 276.366C187.217 276.499 188.641 277.859 188.641 279.582C188.641 279.946 188.541 280.312 188.409 280.643C188.707 280.51 189.038 280.444 189.403 280.411C189.568 280.378 189.701 280.378 189.866 280.378C189.933 280.378 189.966 280.411 190.065 280.411C190.926 280.444 191.721 280.742 192.285 281.34C193.279 282.4 193.445 284.025 193.445 285.119C193.743 284.854 194.074 284.588 194.372 284.356C195.896 283.063 197.453 281.737 199.176 280.477L200.601 279.449L200.7 279.913L200.965 281.074C202.621 288.301 202.091 292.909 199.375 295.196C198.845 295.661 197.42 297.849 194.339 298.677C193.312 298.977 192.086 299.043 190.628 298.91C190.231 298.877 189.833 298.877 189.403 298.777C189.403 298.777 191.291 301.131 191.291 302.723C191.291 303.883 190.728 305.176 188.442 305.805C189.171 313.066 190.098 322.879 190.098 327.752C190.098 333.19 188.674 336.239 186.985 337.366C186.487 337.665 185.99 337.864 185.493 337.864C182.247 337.864 180.624 334.549 180.624 328.017C180.624 322.978 181.386 313.033 181.982 305.739C179.828 305.076 179.265 303.817 179.265 302.723C179.265 302.192 180.027 299.672 180.889 298.677C179.662 299.01 174.694 298.346 171.181 295.196C168.498 292.776 167.901 288.201 169.558 280.974ZM202.29 119.357C223.162 121.777 232.637 112.992 238.467 101.985C239.991 103.942 246.65 120.948 235.784 130.264C221.174 142.763 185.129 132.419 175.687 160.002C175.853 159.604 175.555 160.4 175.687 160.002C157.367 136.596 172.871 115.943 202.29 119.357ZM191.721 71.1207C193.942 57.6608 205.239 47.2842 213.157 43.8032L213.753 44.8309L219.087 54.1467C199.773 64.0593 192.616 87.1996 205.636 105.533C205.636 105.533 205.67 105.599 205.703 105.632C195.863 99.9633 189.336 85.4756 191.721 71.1207ZM238.368 61.9707C248.374 66.0816 257.384 78.5468 270.205 80.2375C270.073 80.4033 269.874 80.5359 269.742 80.6685C260.963 89.4207 247.777 96.5815 236.016 97.1119C232.338 102.582 228.495 107.986 222.631 111.765L222.598 111.798L217.994 109.08C205.272 101.588 201.296 84.7463 209.645 72.2147C217.232 60.744 227.104 57.3625 238.368 61.9707ZM271.497 97.8415C273.187 100.394 275.175 103.113 276.301 105.268C277.361 107.257 271.696 107.357 272.094 109.113C272.359 110.505 273.353 111.865 273.353 112.992C273.353 114.749 272.193 115.711 272.657 117.799C274.777 127.148 265.899 124.363 258.345 125.126C258.345 125.126 259.67 140.906 252.282 164.411C246.617 164.543 240.952 151.084 232.67 145.249C245.358 134.442 251.719 118.031 244.994 101.189C250.195 99.565 253.475 98.2728 258.875 95.9188C258.643 96.2171 258.411 96.6476 258.146 97.1119C257.583 98.2059 257.053 99.6981 257.02 101.289C257.285 101.356 257.55 101.422 257.815 101.455C260.002 101.985 262.089 102.052 264.341 100.924C266.131 100.029 267.39 98.8024 268.35 97.6093C269.145 96.6145 270.636 96.7145 271.398 97.6754C271.431 97.7754 271.464 97.7754 271.497 97.8415ZM256.026 25.0059C154.086 25.0059 71.4619 123.203 71.4619 255.845C71.4619 314.856 87.8611 367.038 114.994 406.787C114.961 406.323 114.928 405.826 114.928 405.329C114.928 405.295 114.928 405.262 114.928 405.262V246.397H151.47C151.47 246.397 162.668 253.524 172.142 255.58H124.005V405.229C124.005 418.755 134.872 429.729 148.256 429.729H170.42C175.853 430.458 181.286 433.077 185.626 437.453C186.189 438.05 186.786 438.613 187.316 439.243C187.415 439.111 187.482 439.012 187.581 438.912L187.614 438.879C187.945 438.414 188.31 437.951 188.674 437.519C192.55 432.778 197.618 430.391 202.191 429.729H222.83C236.215 429.729 247.081 418.755 247.081 405.229V255.58H233.1C229.821 251.701 225.978 248.651 223.427 246.397H256.159V405.229C256.159 423.828 241.25 438.912 222.863 438.912H203.582C204.012 438.978 204.443 439.012 204.907 439.078C199.176 439.078 192.086 443.819 187.349 450.781C182.015 444.415 174.528 439.078 167.437 439.078L148.289 438.912C146.633 438.912 145.009 438.646 143.386 438.216L143.419 438.249C143.286 438.216 143.187 438.149 143.054 438.116C142.16 437.851 141.266 437.553 140.371 437.221C172.01 468.451 212.229 486.651 256.026 486.651C299.724 486.651 339.844 470.771 371.483 441.266L372.675 440.106C362.57 440.503 346.404 441.266 339.579 441.266C329.408 441.266 335.305 426.546 335.305 414.909C325.598 388.554 319.402 374.265 308.271 345.058C298.697 353.313 316.223 375.193 306.581 386.796C297.703 397.471 281.403 421.176 281.403 421.176C289.122 425.518 308.039 431.884 316.388 433.541C316.554 437.951 315.494 440.47 309.1 440.735C290.249 441.531 281.701 441.531 263.579 441.531C257.616 441.531 252.58 433.773 256.954 428.304C260.764 423.563 264.176 418.125 267.323 412.291L303.898 311.574C297.769 310.082 292.237 324.437 288.493 332.824C282.563 346.152 271.133 361.7 265.203 367.27V261.182C277.295 265.957 281.503 267.283 292.469 272.521L281.238 257.702C297.736 260.354 309.067 262.476 321.59 265.26C327.917 267.05 350.08 274.742 354.056 286.809C358.165 299.208 355.944 308.69 347.099 322.315C343.455 302.225 337.259 282.798 316.951 276.764C330.203 287.804 335.835 302.225 339.148 324.337C343.488 353.379 349.186 390.377 351.903 411.362C353.063 420.479 364.857 426.612 369.959 428.8L380.493 432.248L384.767 427.375C419.156 387.692 440.557 329.31 440.557 255.812C440.557 111.268 357.933 25.0059 256.026 25.0059Z" fill="#C31632"/>
</svg>
